<svg xmlns="http://www.w3.org/2000/svg" viewBox="0 0 160 160"><defs><linearGradient id="metal" x1="0" y1="0" x2="1" y2="1"><stop stop-color="#fff1b2"/><stop offset=".25" stop-color="#e4b657"/><stop offset=".55" stop-color="#895522"/><stop offset=".8" stop-color="#e4b657"/><stop offset="1" stop-color="#fff1b2"/></linearGradient></defs><circle cx="80" cy="80" r="59" fill="none" stroke="#07101e" stroke-width="12"/><circle cx="80" cy="80" r="59" fill="none" stroke="url(#metal)" stroke-width="6"/><circle cx="80" cy="80" r="54.5" fill="none" stroke="#fff1b2" stroke-opacity=".65" stroke-width="1"/><path d="M37 38a60 60 0 0 1 82 0" fill="none" stroke="#fff1b2" stroke-width="1.5" opacity=".8"/><path d="M61 142Q7 124 18 64" fill="none" stroke="#e4b657" stroke-width="1.5" stroke-linejoin="round" stroke-linecap="round"/><path d="M45.0 130q-17 -2 -7 -13q11 4 7 13z" fill="url(#metal)" stroke="#895522" stroke-width="0.6" stroke-linejoin="round" stroke-linecap="round"/><path d="M36.3 121q-17 -2 -7 -13q11 4 7 13z" fill="url(#metal)" stroke="#895522" stroke-width="0.6" stroke-linejoin="round" stroke-linecap="round"/><path d="M29.4 112q-17 -2 -7 -13q11 4 7 13z" fill="url(#metal)" stroke="#895522" stroke-width="0.6" stroke-linejoin="round" stroke-linecap="round"/><path d="M25.5 103q-17 -2 -7 -13q11 4 7 13z" fill="url(#metal)" stroke="#895522" stroke-width="0.6" stroke-linejoin="round" stroke-linecap="round"/><path d="M25.5 94q-17 -2 -7 -13q11 4 7 13z" fill="url(#metal)" stroke="#895522" stroke-width="0.6" stroke-linejoin="round" stroke-linecap="round"/><path d="M29.3 85q-17 -2 -7 -13q11 4 7 13z" fill="url(#metal)" stroke="#895522" stroke-width="0.6" stroke-linejoin="round" stroke-linecap="round"/><path d="M36.3 76q-17 -2 -7 -13q11 4 7 13z" fill="url(#metal)" stroke="#895522" stroke-width="0.6" stroke-linejoin="round" stroke-linecap="round"/><path d="M99 142Q153 124 142 64" fill="none" stroke="#e4b657" stroke-width="1.5" stroke-linejoin="round" stroke-linecap="round"/><path d="M115.0 130q17 -2 7 -13q-11 4 -7 13z" fill="url(#metal)" stroke="#895522" stroke-width="0.6" stroke-linejoin="round" stroke-linecap="round"/><path d="M123.7 121q17 -2 7 -13q-11 4 -7 13z" fill="url(#metal)" stroke="#895522" stroke-width="0.6" stroke-linejoin="round" stroke-linecap="round"/><path d="M130.6 112q17 -2 7 -13q-11 4 -7 13z" fill="url(#metal)" stroke="#895522" stroke-width="0.6" stroke-linejoin="round" stroke-linecap="round"/><path d="M134.5 103q17 -2 7 -13q-11 4 -7 13z" fill="url(#metal)" stroke="#895522" stroke-width="0.6" stroke-linejoin="round" stroke-linecap="round"/><path d="M134.5 94q17 -2 7 -13q-11 4 -7 13z" fill="url(#metal)" stroke="#895522" stroke-width="0.6" stroke-linejoin="round" stroke-linecap="round"/><path d="M130.7 85q17 -2 7 -13q-11 4 -7 13z" fill="url(#metal)" stroke="#895522" stroke-width="0.6" stroke-linejoin="round" stroke-linecap="round"/><path d="M123.7 76q17 -2 7 -13q-11 4 -7 13z" fill="url(#metal)" stroke="#895522" stroke-width="0.6" stroke-linejoin="round" stroke-linecap="round"/><path d="M58 22l-3-15 14 7L80 2l11 12 14-7-3 15z" fill="url(#metal)" stroke="#895522" stroke-width="1.5" stroke-linejoin="round" stroke-linecap="round"/><path d="M59 25h42" fill="#fff1b2" stroke="#895522" stroke-width="1" stroke-linejoin="round" stroke-linecap="round"/><path d="M80 12l4 4l-4 4l-4 -4z" fill="#fff1b2" stroke="#895522" stroke-width="1" stroke-linejoin="round" stroke-linecap="round"/><path d="M80 136l5 5l-5 5l-5 -5z" fill="#fff1b2" stroke="#895522" stroke-width="1" stroke-linejoin="round" stroke-linecap="round"/></svg>