<svg xmlns="http://www.w3.org/2000/svg" viewBox="0 0 160 160"><defs><linearGradient id="metal" x1="0" y1="0" x2="1" y2="1"><stop stop-color="#f5edff"/><stop offset=".25" stop-color="#afa7ff"/><stop offset=".55" stop-color="#4946a2"/><stop offset=".8" stop-color="#afa7ff"/><stop offset="1" stop-color="#f5edff"/></linearGradient></defs><path d="M80 8L98 55L149 58L110 91L123 143L80 115L37 143L50 91L11 58L62 55Z" fill="none" stroke="#07101e" stroke-width="12" stroke-linejoin="round"/><path d="M80 8L98 55L149 58L110 91L123 143L80 115L37 143L50 91L11 58L62 55Z" fill="none" stroke="url(#metal)" stroke-width="6" stroke-linejoin="round"/><path d="M80 8L98 55L149 58L110 91L123 143L80 115L37 143L50 91L11 58L62 55Z" transform="translate(80 80) scale(.91) translate(-80 -80)" fill="none" stroke="#f5edff" stroke-width="1" stroke-opacity=".65"/><path d="M80 5l3 3l-3 3l-3 -3z" fill="#f5edff" stroke="#4946a2" stroke-width="1" stroke-linejoin="round" stroke-linecap="round"/><path d="M149 55l3 3l-3 3l-3 -3z" fill="#f5edff" stroke="#4946a2" stroke-width="1" stroke-linejoin="round" stroke-linecap="round"/><path d="M123 140l3 3l-3 3l-3 -3z" fill="#f5edff" stroke="#4946a2" stroke-width="1" stroke-linejoin="round" stroke-linecap="round"/><path d="M37 140l3 3l-3 3l-3 -3z" fill="#f5edff" stroke="#4946a2" stroke-width="1" stroke-linejoin="round" stroke-linecap="round"/><path d="M11 55l3 3l-3 3l-3 -3z" fill="#f5edff" stroke="#4946a2" stroke-width="1" stroke-linejoin="round" stroke-linecap="round"/></svg>